<?xml version="1.0" encoding="UTF-8" standalone="no"?>
<!DOCTYPE svg PUBLIC "-//W3C//DTD SVG 1.1//EN" "http://www.w3.org/Graphics/SVG/1.1/DTD/svg11.dtd">
<svg width="100%" height="100%" viewBox="0 0 1000 1000" version="1.1" xmlns="http://www.w3.org/2000/svg" xmlns:xlink="http://www.w3.org/1999/xlink" xml:space="preserve" xmlns:serif="http://www.serif.com/" style="fill-rule:evenodd;clip-rule:evenodd;stroke-linejoin:round;stroke-miterlimit:2;">
    <circle id="Background" cx="500" cy="500" r="500" style="fill:rgb(217,4,41);"/>
    <path id="Logs" d="M707.674,712.308L514.489,660.544L754.084,596.345C769.243,592.283 787.349,610.626 794.491,637.282C801.633,663.937 795.125,688.876 779.966,692.937L707.674,712.308ZM292.326,720.073L485.511,771.836L258.092,832.773C266.891,822.893 269.465,801.856 263.492,779.563C257.518,757.269 244.77,740.338 232.21,736.181L292.326,720.073ZM220.034,739.443C235.192,735.382 253.298,753.725 260.44,780.38C267.582,807.036 261.074,831.974 245.916,836.036C230.757,840.098 212.651,821.754 205.509,795.099C198.367,768.443 204.875,743.505 220.034,739.443ZM223.916,753.932C213.305,756.775 208.749,774.232 213.749,792.891C218.748,811.55 231.422,824.39 242.033,821.547C252.644,818.704 257.2,801.247 252.2,782.588C247.201,763.929 234.527,751.089 223.916,753.932ZM226.504,763.591C234.083,761.561 243.136,770.732 246.707,784.06C250.279,797.388 247.024,809.857 239.445,811.888C231.866,813.919 222.813,804.747 219.242,791.419C215.671,778.092 218.925,765.622 226.504,763.591ZM220.034,692.937C204.875,688.876 198.367,663.937 205.509,637.282C212.651,610.626 230.757,592.283 245.916,596.345L767.79,736.181C755.23,740.338 742.482,757.269 736.508,779.563C730.535,801.856 733.109,822.893 741.908,832.773L220.034,692.937ZM779.966,739.443C795.125,743.505 801.633,768.443 794.491,795.099C787.349,821.754 769.243,840.098 754.084,836.036C738.926,831.974 732.418,807.036 739.56,780.38C746.702,753.725 764.808,735.382 779.966,739.443ZM776.084,753.932C765.473,751.089 752.799,763.929 747.8,782.588C742.8,801.247 747.356,818.704 757.967,821.547C768.578,824.39 781.252,811.55 786.251,792.891C791.251,774.232 786.695,756.775 776.084,753.932ZM773.496,763.591C781.075,765.622 784.329,778.092 780.758,791.419C777.187,804.747 768.134,813.919 760.555,811.888C752.976,809.857 749.721,797.388 753.293,784.06C756.864,770.732 765.917,761.561 773.496,763.591Z" style="fill:white;"/>
    <path id="Fire" d="M345.972,417.064C359.113,431.029 374.728,440.533 390.402,442.604C386.932,441.362 377.529,431.947 369.318,417.064C359.166,398.661 350.835,371.896 357.794,341.877C376.623,253.717 526.128,198.309 467.777,83.401C540.133,132.197 603.432,197.951 616.637,270.838C623.296,307.592 605.817,348.643 625.987,383.848C632.233,394.749 641.269,404.914 652.364,413.525C624.751,378.441 633.234,325.803 676.234,300.325C670.895,310.627 668.941,328.225 672.679,339.416C676.919,352.11 688.651,362.049 697.753,372.836C709.545,386.81 717.351,400.429 717.372,417.064C717.372,521.515 619.945,606.19 500,606.19C380.055,606.19 282.628,521.515 282.628,417.064C282.628,398.939 286.712,381.519 291.541,366.202C296.747,349.687 303.232,333.664 312.496,319.763C307.862,355.284 323.204,392.869 345.972,417.064ZM435.821,509.73C426.335,499.649 419.942,483.989 421.873,469.188C418.013,474.98 415.311,481.657 413.142,488.538C411.13,494.92 409.428,502.178 409.428,509.73C409.428,553.252 450.023,588.533 500,588.533C549.977,588.533 590.572,553.252 590.572,509.73C590.563,502.799 587.31,497.124 582.397,491.302C578.604,486.807 573.716,482.666 571.949,477.377C570.392,472.714 571.206,465.382 573.431,461.089C555.514,471.705 551.98,493.637 563.485,508.256C558.862,504.668 555.097,500.432 552.495,495.89C544.09,481.222 551.373,464.117 548.599,448.803C543.097,418.433 516.722,391.035 486.574,370.704C510.886,418.582 448.593,441.669 440.747,478.402C437.848,490.91 441.319,502.062 445.549,509.73C448.971,515.932 452.888,519.854 454.334,520.372C447.803,519.509 441.297,515.549 435.821,509.73Z" style="fill:white;"/>
</svg>
