<?xml version="1.0" encoding="UTF-8" standalone="no"?>
<!DOCTYPE svg PUBLIC "-//W3C//DTD SVG 1.1//EN" "http://www.w3.org/Graphics/SVG/1.1/DTD/svg11.dtd">
<svg width="100%" height="100%" viewBox="0 0 1000 1000" version="1.1" xmlns="http://www.w3.org/2000/svg" xmlns:xlink="http://www.w3.org/1999/xlink" xml:space="preserve" xmlns:serif="http://www.serif.com/" style="fill-rule:evenodd;clip-rule:evenodd;stroke-linejoin:round;stroke-miterlimit:2;">
    <circle id="Background" cx="500" cy="500" r="500" style="fill:rgb(217,4,41);"/>
    <g id="Logs" transform="matrix(0.789843,0,0,0.789843,105.079,202.792)">
        <g transform="matrix(1.26607,0,0,1.26607,-133.037,-236.252)">
            <path d="M707.674,696.118L514.489,644.354L754.084,580.154C769.243,576.093 787.349,594.436 794.491,621.091C801.633,647.747 795.125,672.685 779.966,676.747L707.674,696.118ZM292.326,703.882L485.511,755.646L258.092,816.583C266.891,806.703 269.465,785.666 263.492,763.372C257.518,741.079 244.77,724.147 232.21,719.99L292.326,703.882ZM220.034,723.253C235.192,719.191 253.298,737.534 260.44,764.19C267.582,790.845 261.074,815.784 245.916,819.846C230.757,823.907 212.651,805.564 205.509,778.909C198.367,752.253 204.875,727.315 220.034,723.253ZM223.916,737.742C213.305,740.585 208.749,758.042 213.749,776.701C218.748,795.36 231.422,808.2 242.033,805.357C252.644,802.513 257.2,785.057 252.2,766.398C247.201,747.739 234.527,734.899 223.916,737.742ZM226.504,747.401C234.083,745.37 243.136,754.542 246.707,767.87C250.279,781.197 247.024,793.667 239.445,795.697C231.866,797.728 222.813,788.557 219.242,775.229C215.671,761.901 218.925,749.432 226.504,747.401Z" style="fill:white;"/>
        </g>
        <g transform="matrix(0.965926,0.258819,-0.327684,1.22293,230.032,-274.317)">
            <path d="M150,700C130.131,700 114,677.596 114,650C114,622.404 130.131,600 150,600L834.04,600C820.042,607.266 810,626.92 810,650C810,673.08 820.042,692.734 834.04,700L150,700ZM850,600C869.869,600 886,622.404 886,650C886,677.596 869.869,700 850,700C830.131,700 814,677.596 814,650C814,622.404 830.131,600 850,600ZM850,615C836.092,615 824.8,630.683 824.8,650C824.8,669.317 836.092,685 850,685C863.908,685 875.2,669.317 875.2,650C875.2,630.683 863.908,615 850,615ZM850,625C859.934,625 868,636.202 868,650C868,663.798 859.934,675 850,675C840.066,675 832,663.798 832,650C832,636.202 840.066,625 850,625Z" style="fill:white;"/>
        </g>
    </g>
    <g id="Fire">
        <path id="Fire1" serif:id="Fire" d="M345.972,417.064C359.113,431.029 374.728,440.533 390.402,442.604C386.932,441.362 377.529,431.947 369.318,417.064C359.166,398.661 350.835,371.896 357.794,341.877C376.623,253.717 526.128,198.309 467.777,83.401C540.133,132.197 603.432,197.951 616.637,270.838C623.296,307.592 605.817,348.643 625.987,383.848C632.233,394.749 641.269,404.914 652.364,413.525C624.751,378.441 633.234,325.803 676.234,300.325C670.895,310.627 668.941,328.225 672.679,339.416C676.919,352.11 688.651,362.049 697.753,372.836C709.545,386.81 717.351,400.429 717.372,417.064C717.372,521.515 619.945,606.19 500,606.19C380.055,606.19 282.628,521.515 282.628,417.064C282.628,398.939 286.712,381.519 291.541,366.202C296.747,349.687 303.232,333.664 312.496,319.763C307.862,355.284 323.204,392.869 345.972,417.064ZM435.821,509.73C426.335,499.649 419.942,483.989 421.873,469.188C418.013,474.98 415.311,481.657 413.142,488.538C411.13,494.92 409.428,502.178 409.428,509.73C409.428,553.252 450.023,588.533 500,588.533C549.977,588.533 590.572,553.252 590.572,509.73C590.563,502.799 587.31,497.124 582.397,491.302C578.604,486.807 573.716,482.666 571.949,477.377C570.392,472.714 571.206,465.382 573.431,461.089C555.514,471.705 551.98,493.637 563.485,508.256C558.862,504.668 555.097,500.432 552.495,495.89C544.09,481.222 551.373,464.117 548.599,448.803C543.097,418.433 516.722,391.035 486.574,370.704C510.886,418.582 448.593,441.669 440.747,478.402C437.848,490.91 441.319,502.062 445.549,509.73C448.971,515.932 452.888,519.854 454.334,520.372C447.803,519.509 441.297,515.549 435.821,509.73Z" style="fill:white;"/>
    </g>
</svg>
