<?xml version="1.0" encoding="UTF-8" standalone="no"?>
<!DOCTYPE svg PUBLIC "-//W3C//DTD SVG 1.1//EN" "http://www.w3.org/Graphics/SVG/1.1/DTD/svg11.dtd">
<svg width="100%" height="100%" viewBox="0 0 600 100" version="1.1" xmlns="http://www.w3.org/2000/svg" xmlns:xlink="http://www.w3.org/1999/xlink" xml:space="preserve" xmlns:serif="http://www.serif.com/" style="fill-rule:evenodd;clip-rule:evenodd;stroke-miterlimit:2;">
    <g transform="matrix(1.86082,0,0,1.86073,-124.784,-34.4235)">
        <g id="BlackText">
            <g transform="matrix(0.168384,0,0,0.179419,46.7491,-25.5395)">
                <g transform="matrix(478.425,0,0,416.022,101,540)">
                    <path d="M0.041,-0.7L0.151,-0.7L0.151,-0.405L0.291,-0.7L0.401,-0.7L0.27,-0.443L0.403,-0L0.288,-0L0.195,-0.312L0.151,-0.223L0.151,-0L0.041,-0L0.041,-0.7Z" style="fill:rgb(33,33,33);fill-rule:nonzero;stroke:rgb(33,33,33);stroke-width:0.02px;"/>
                </g>
                <g transform="matrix(478.425,0,0,416.022,307.68,540)">
                    <path d="M0.126,-0.7L0.275,-0.7L0.389,-0L0.279,-0L0.259,-0.139L0.259,-0.137L0.134,-0.137L0.114,-0L0.012,-0L0.126,-0.7ZM0.246,-0.232L0.197,-0.578L0.195,-0.578L0.147,-0.232L0.246,-0.232Z" style="fill:rgb(33,33,33);fill-rule:nonzero;stroke:rgb(33,33,33);stroke-width:0.02px;"/>
                </g>
                <g transform="matrix(478.425,0,0,416.022,508.14,540)">
                    <path d="M0.041,-0.7L0.179,-0.7L0.286,-0.281L0.288,-0.281L0.288,-0.7L0.386,-0.7L0.386,-0L0.273,-0L0.141,-0.511L0.139,-0.511L0.139,-0L0.041,-0L0.041,-0.7Z" style="fill:rgb(33,33,33);fill-rule:nonzero;stroke:rgb(33,33,33);stroke-width:0.02px;"/>
                </g>
                <g transform="matrix(478.425,0,0,416.022,721.039,540)">
                    <path d="M0.067,0.004C0.047,0.004 0.03,0.003 0.016,-0L0.016,-0.1C0.027,-0.097 0.039,-0.096 0.052,-0.096C0.074,-0.096 0.09,-0.102 0.101,-0.113C0.112,-0.124 0.117,-0.14 0.117,-0.163L0.117,-0.7L0.227,-0.7L0.227,-0.166C0.227,-0.109 0.214,-0.066 0.188,-0.038C0.161,-0.01 0.121,0.004 0.067,0.004Z" style="fill:rgb(33,33,33);fill-rule:nonzero;stroke:rgb(33,33,33);stroke-width:0.02px;"/>
                </g>
                <g transform="matrix(478.425,0,0,416.022,856.433,540)">
                    <rect x="0.041" y="-0.7" width="0.11" height="0.7" style="fill:rgb(33,33,33);fill-rule:nonzero;stroke:rgb(33,33,33);stroke-width:0.02px;"/>
                </g>
            </g>
            <g transform="matrix(0.168384,0,0,0.179419,232.076,-25.3902)">
                <g transform="matrix(478.425,0,0,416.022,101,540)">
                    <path d="M0.196,0.01C0.143,0.01 0.103,-0.005 0.076,-0.035C0.048,-0.065 0.034,-0.107 0.034,-0.162L0.034,-0.538C0.034,-0.593 0.048,-0.635 0.076,-0.665C0.103,-0.695 0.143,-0.71 0.196,-0.71C0.249,-0.71 0.289,-0.695 0.317,-0.665C0.344,-0.635 0.358,-0.593 0.358,-0.538L0.358,-0.464L0.254,-0.464L0.254,-0.545C0.254,-0.588 0.236,-0.61 0.199,-0.61C0.162,-0.61 0.144,-0.588 0.144,-0.545L0.144,-0.154C0.144,-0.111 0.162,-0.09 0.199,-0.09C0.236,-0.09 0.254,-0.111 0.254,-0.154L0.254,-0.261L0.358,-0.261L0.358,-0.162C0.358,-0.107 0.344,-0.065 0.317,-0.035C0.289,-0.005 0.249,0.01 0.196,0.01Z" style="fill:rgb(33,33,33);fill-rule:nonzero;stroke:rgb(33,33,33);stroke-width:0.02px;"/>
                </g>
                <g transform="matrix(478.425,0,0,416.022,292.848,540)">
                    <path d="M0.126,-0.7L0.275,-0.7L0.389,-0L0.279,-0L0.259,-0.139L0.259,-0.137L0.134,-0.137L0.114,-0L0.012,-0L0.126,-0.7ZM0.246,-0.232L0.197,-0.578L0.195,-0.578L0.147,-0.232L0.246,-0.232Z" style="fill:rgb(33,33,33);fill-rule:nonzero;stroke:rgb(33,33,33);stroke-width:0.02px;"/>
                </g>
                <g transform="matrix(478.425,0,0,416.022,493.309,540)">
                    <path d="M0.041,-0.7L0.198,-0.7L0.268,-0.199L0.27,-0.199L0.34,-0.7L0.497,-0.7L0.497,-0L0.393,-0L0.393,-0.53L0.391,-0.53L0.311,-0L0.219,-0L0.139,-0.53L0.137,-0.53L0.137,-0L0.041,-0L0.041,-0.7Z" style="fill:rgb(33,33,33);fill-rule:nonzero;stroke:rgb(33,33,33);stroke-width:0.02px;"/>
                </g>
                <g transform="matrix(478.425,0,0,416.022,759.313,540)">
                    <path d="M0.041,-0.7L0.203,-0.7C0.258,-0.7 0.299,-0.685 0.326,-0.656C0.353,-0.627 0.367,-0.584 0.367,-0.527L0.367,-0.458C0.367,-0.401 0.353,-0.358 0.326,-0.329C0.299,-0.3 0.258,-0.285 0.203,-0.285L0.151,-0.285L0.151,-0L0.041,-0L0.041,-0.7ZM0.203,-0.385C0.221,-0.385 0.234,-0.39 0.244,-0.4C0.253,-0.41 0.257,-0.427 0.257,-0.451L0.257,-0.534C0.257,-0.558 0.253,-0.575 0.244,-0.585C0.234,-0.595 0.221,-0.6 0.203,-0.6L0.151,-0.6L0.151,-0.385L0.203,-0.385Z" style="fill:rgb(33,33,33);fill-rule:nonzero;stroke:rgb(33,33,33);stroke-width:0.02px;"/>
                </g>
            </g>
        </g>
        <g transform="matrix(0.294702,0,0,0.294716,74.4375,21.7408)">
            <circle cx="519" cy="80" r="31" style="fill:rgb(217,4,41);"/>
        </g>
    </g>
</svg>
