<?xml version="1.0" standalone="no"?>
<!DOCTYPE svg PUBLIC "-//W3C//DTD SVG 20010904//EN"
 "http://www.w3.org/TR/2001/REC-SVG-20010904/DTD/svg10.dtd">
<svg version="1.0" xmlns="http://www.w3.org/2000/svg"
 width="1000.000000pt" height="1000.000000pt" viewBox="0 0 1000.000000 1000.000000"
 preserveAspectRatio="xMidYMid meet">
<metadata>
Created by potrace 1.14, written by Peter Selinger 2001-2017
</metadata>
<g transform="translate(0.000000,1000.000000) scale(0.100000,-0.100000)"
fill="#000000" stroke="none">
<path d="M4738 9995 c-2 -2 -43 -6 -91 -9 -114 -8 -183 -15 -227 -21 -19 -3
-55 -7 -80 -10 -86 -10 -118 -15 -205 -32 -11 -2 -36 -6 -55 -9 -68 -11 -346
-75 -430 -100 -47 -14 -92 -27 -101 -29 -34 -7 -240 -79 -360 -125 -377 -146
-800 -375 -1084 -587 -6 -5 -33 -24 -60 -43 -28 -19 -57 -40 -65 -47 -8 -6
-51 -40 -95 -75 -44 -34 -85 -67 -91 -73 -6 -5 -40 -35 -75 -65 -165 -143
-421 -401 -511 -515 -12 -15 -31 -37 -42 -49 -98 -103 -340 -445 -465 -656
-34 -58 -66 -112 -71 -120 -15 -24 -173 -341 -197 -395 -12 -28 -33 -76 -47
-108 -14 -32 -26 -63 -26 -70 0 -7 -4 -17 -9 -23 -7 -8 -55 -138 -109 -299
-47 -139 -129 -453 -147 -565 -3 -19 -8 -48 -12 -65 -3 -16 -7 -39 -8 -50 -2
-11 -8 -47 -13 -80 -6 -33 -13 -82 -17 -110 -3 -27 -8 -63 -10 -80 -34 -233
-40 -927 -10 -1087 2 -9 6 -43 10 -75 3 -32 7 -69 10 -83 2 -14 7 -47 10 -75
5 -43 55 -314 68 -370 25 -104 47 -187 83 -315 26 -90 106 -323 121 -352 7
-15 14 -31 14 -35 4 -29 90 -228 166 -383 153 -314 337 -607 562 -899 45 -57
71 -88 181 -216 94 -109 335 -349 440 -440 30 -26 69 -59 85 -74 136 -123 568
-429 703 -497 20 -10 39 -21 42 -24 27 -27 452 -233 615 -298 345 -138 679
-231 1060 -297 28 -5 240 -33 295 -39 124 -14 279 -20 515 -20 281 0 413 7
575 29 19 3 58 8 85 11 60 6 81 9 250 39 94 17 88 16 232 49 259 58 609 176
860 287 72 31 403 197 443 221 19 12 73 44 120 71 184 109 509 339 624 442 12
11 49 43 81 70 53 44 150 135 255 237 57 55 181 188 240 257 30 35 60 69 65
75 89 94 419 561 458 646 4 8 17 31 28 50 148 243 315 611 419 920 23 69 44
132 46 140 1 8 16 62 32 120 59 213 116 488 136 663 3 26 8 66 11 90 23 177
30 319 29 592 0 149 -4 306 -7 350 -16 173 -19 210 -22 226 -2 9 -6 40 -10 70
-3 30 -9 68 -11 84 -3 17 -7 44 -10 60 -2 17 -6 37 -7 45 -2 8 -7 38 -11 65
-5 28 -15 79 -23 115 -8 36 -16 72 -18 80 -50 224 -161 584 -226 727 -10 24
-19 45 -19 49 0 12 -64 152 -140 309 -124 253 -270 498 -432 723 -63 88 -166
221 -178 232 -4 3 -13 14 -21 26 -68 100 -399 440 -574 590 -44 38 -82 71 -85
74 -8 8 -91 74 -145 116 -27 20 -54 41 -59 46 -61 51 -378 262 -466 309 -25
13 -47 26 -50 29 -17 17 -284 154 -418 214 -269 121 -578 230 -842 295 -126
31 -227 53 -307 66 -48 9 -99 18 -113 20 -14 3 -45 8 -70 10 -25 3 -56 8 -70
10 -31 6 -194 23 -280 31 -64 5 -637 13 -642 9z"/>
</g>
</svg>
