<?xml version="1.0" encoding="UTF-8" standalone="no"?>
<!DOCTYPE svg PUBLIC "-//W3C//DTD SVG 1.1//EN" "http://www.w3.org/Graphics/SVG/1.1/DTD/svg11.dtd">
<svg width="100%" height="100%" viewBox="0 0 1000 1000" version="1.1" xmlns="http://www.w3.org/2000/svg" xmlns:xlink="http://www.w3.org/1999/xlink" xml:space="preserve" xmlns:serif="http://www.serif.com/" style="fill-rule:evenodd;clip-rule:evenodd;stroke-linejoin:round;stroke-miterlimit:2;">
    <circle id="Background" cx="500" cy="500" r="500" style="fill:rgb(217,4,41);"/>
    <g id="Sakura-Logo" serif:id="Sakura Logo" transform="matrix(1,0,0,1,1.13687e-13,4.76513)">
        <g transform="matrix(1,0,0,1,-1.13687e-13,-4.76513)">
            <path d="M570.569,50C601.11,92.493 630,149.107 630,211.23C630,343.011 500,450 500,450C500,450 370,343.011 370,211.23C370,149.107 398.89,92.493 429.431,50L500,97.433L570.569,50ZM93.831,293.828C143.683,277.912 206.453,267.931 265.535,287.128C390.866,327.85 452.447,484.549 452.447,484.549C452.447,484.549 310.522,575.125 185.191,534.402C126.108,515.205 81.193,470.235 50.218,428.057L117.136,375.6L93.831,293.828ZM178.405,822.578C178.674,770.249 188.578,707.467 225.093,657.208C302.552,550.595 470.611,540.451 470.611,540.451C470.611,540.451 512.896,703.419 435.437,810.032C398.922,860.291 342.273,889.111 292.588,905.537L263.377,825.684L178.405,822.578ZM707.412,905.537C657.727,889.111 601.078,860.291 564.563,810.032C487.104,703.419 529.389,540.451 529.389,540.451C529.389,540.451 697.448,550.595 774.907,657.208C811.422,707.467 821.326,770.249 821.595,822.578L736.623,825.684L707.412,905.537ZM949.782,428.057C918.807,470.235 873.892,515.205 814.809,534.402C689.478,575.125 547.553,484.549 547.553,484.549C547.553,484.549 609.134,327.85 734.465,287.128C793.547,267.931 856.317,277.912 906.169,293.828L882.864,375.6L949.782,428.057Z" style="fill:white;"/>
        </g>
        <g transform="matrix(1,0,0,1,-1.13687e-13,-4.76513)">
            <path d="M193.353,243.262C234.503,194.177 287.208,155.102 347.266,130.24C341.132,153.025 337.52,176.834 337.5,201.329C310.825,215.885 286.31,233.91 264.564,254.796C241.028,247.636 217.069,244.103 193.353,243.262ZM652.734,130.24C712.792,155.102 765.497,194.177 806.647,243.262C782.931,244.103 758.972,247.636 735.436,254.796C713.69,233.91 689.175,215.885 662.5,201.329C662.48,176.834 658.868,153.025 652.734,130.24ZM898.713,532.294C893.422,598.392 872.033,659.979 838.474,713.13C830.599,690.512 820.073,668.446 806.191,647.886C818.842,621.765 828.248,593.786 833.884,564.472C857.289,556.59 878.895,545.479 898.713,532.294ZM594.471,888.759C564.177,896.106 532.54,900 500,900C467.46,900 435.823,896.106 405.529,888.759C424.628,874.132 442.35,857.13 457.556,837.371C471.462,839.106 485.628,840 500,840C514.372,840 528.538,839.106 542.444,837.371C557.65,857.13 575.372,874.132 594.471,888.759ZM161.526,713.13C127.967,659.979 106.578,598.392 101.287,532.294C121.105,545.479 142.711,556.59 166.116,564.472C171.752,593.786 181.158,621.765 193.809,647.886C179.927,668.446 169.401,690.512 161.526,713.13Z" style="fill:white;"/>
        </g>
    </g>
</svg>
