<svg id="visual" viewBox="0 0 1920 1080" width="1920" height="1080" xmlns="http://www.w3.org/2000/svg" xmlns:xlink="http://www.w3.org/1999/xlink" version="1.1"><path d="M0 866L32 853C64 840 128 814 192 820.8C256 827.7 320 867.3 384 888.5C448 909.7 512 912.3 576 904.8C640 897.3 704 879.7 768 855.3C832 831 896 800 960 805.3C1024 810.7 1088 852.3 1152 866.8C1216 881.3 1280 868.7 1344 855.3C1408 842 1472 828 1536 835C1600 842 1664 870 1728 882.8C1792 895.7 1856 893.3 1888 892.2L1920 891L1920 1081L1888 1081C1856 1081 1792 1081 1728 1081C1664 1081 1600 1081 1536 1081C1472 1081 1408 1081 1344 1081C1280 1081 1216 1081 1152 1081C1088 1081 1024 1081 960 1081C896 1081 832 1081 768 1081C704 1081 640 1081 576 1081C512 1081 448 1081 384 1081C320 1081 256 1081 192 1081C128 1081 64 1081 32 1081L0 1081Z" fill="#2b2d42" stroke-linecap="round" stroke-linejoin="miter"></path></svg>