<?xml version="1.0" encoding="UTF-8" standalone="no"?>
<!DOCTYPE svg PUBLIC "-//W3C//DTD SVG 1.1//EN" "http://www.w3.org/Graphics/SVG/1.1/DTD/svg11.dtd">
<svg width="100%" height="100%" viewBox="0 0 1920 175" version="1.1" xmlns="http://www.w3.org/2000/svg" xmlns:xlink="http://www.w3.org/1999/xlink" xml:space="preserve" xmlns:serif="http://www.serif.com/" style="fill-rule:evenodd;clip-rule:evenodd;stroke-linejoin:round;stroke-miterlimit:2;">
    <g transform="matrix(1,0,0,1,0,-905)">
        <path d="M0,943L35.5,944.2C71,945.3 142,947.7 213.2,956.7C284.3,965.7 355.7,981.3 426.8,973.8C498,966.3 569,935.7 640,931.8C711,928 782,951 853.2,945.5C924.3,940 995.7,906 1066.8,906C1138,906 1209,940 1280,960.7C1351,981.3 1422,988.7 1493.2,987.2C1564.3,985.7 1635.7,975.3 1706.8,963.5C1778,951.7 1849,938.3 1884.5,931.7L1920,925L1920,1081L0,1081L0,943Z" style="fill:rgb(30,41,59);fill-rule:nonzero;"/>
    </g>
</svg>
